<svg width="60" height="32" viewBox="0 0 60 32" fill="none" xmlns="http://www.w3.org/2000/svg">
<rect width="60" height="32" fill="white"/>
<path d="M26.3593 16C26.3593 12.8104 27.8528 9.9691 30.1784 8.13809C28.4777 6.79916 26.3314 6 23.9987 6C18.4764 6 14 10.4771 14 16C14 21.5229 18.4764 26 23.9987 26C26.3314 26 28.4777 25.2008 30.1784 23.8619C27.8528 22.0309 26.3593 19.1897 26.3593 16Z" fill="#F70015"/>
<path d="M46.348 16C46.348 21.5229 41.8715 26 36.3492 26C34.0166 26 31.8703 25.2008 30.1689 23.8619C32.4952 22.0309 33.9886 19.1897 33.9886 16C33.9886 12.8104 32.4952 9.9691 30.1689 8.13809C31.8703 6.79916 34.0166 6 36.3492 6C41.8715 6 46.348 10.4771 46.348 16Z" fill="#F69B01"/>
<path fill-rule="evenodd" clip-rule="evenodd" d="M30.1732 8.14648C27.8503 9.97763 26.3589 12.8172 26.3589 16.0046C26.3589 19.1921 27.8503 22.0317 30.1732 23.8628C32.4967 22.0317 33.9881 19.1921 33.9881 16.0046C33.9881 12.8172 32.4967 9.97763 30.1732 8.14648Z" fill="#F65C00"/>
</svg>
