<svg width="60" height="32" viewBox="0 0 60 32" fill="none" xmlns="http://www.w3.org/2000/svg">
<rect width="60" height="32" fill="white"/>
<path fill-rule="evenodd" clip-rule="evenodd" d="M48.0483 15.7502C48.0483 13.1868 46.8067 11.1641 44.4335 11.1641C42.0503 11.1641 40.6084 13.1868 40.6084 15.7302C40.6084 18.7442 42.3107 20.2662 44.7539 20.2662C45.9455 20.2662 46.8467 19.9959 47.5276 19.6154V17.6127C46.8467 17.9531 46.0657 18.1634 45.0744 18.1634C44.1031 18.1634 43.2419 17.823 43.1318 16.6414H48.0283C48.0283 16.5112 48.0483 15.9905 48.0483 15.7502ZM43.1017 14.7989C43.1017 13.6674 43.7927 13.1968 44.4235 13.1968C45.0343 13.1968 45.6852 13.6674 45.6852 14.7989H43.1017Z" fill="#7A73FF"/>
<path fill-rule="evenodd" clip-rule="evenodd" d="M36.7435 11.1641C35.7622 11.1641 35.1314 11.6247 34.7809 11.9451L34.6507 11.3243H32.4478V22.9999L34.9511 22.4692L34.9611 19.6354C35.3216 19.8957 35.8523 20.2662 36.7335 20.2662C38.5259 20.2662 40.1581 18.8243 40.1581 15.6501C40.1481 12.7462 38.4959 11.1641 36.7435 11.1641ZM36.1427 18.0633C35.5519 18.0633 35.2015 17.853 34.9611 17.5927L34.9511 13.8777C35.2115 13.5873 35.572 13.387 36.1427 13.387C37.0539 13.387 37.6848 14.4084 37.6848 15.7201C37.6848 17.0619 37.064 18.0633 36.1427 18.0633Z" fill="#7A73FF"/>
<path fill-rule="evenodd" clip-rule="evenodd" d="M31.5163 10.0327V8L29.0029 8.53071V10.5734L31.5163 10.0327Z" fill="#7A73FF"/>
<path d="M31.5163 11.335H29.0029V20.0967H31.5163V11.335Z" fill="#7A73FF"/>
<path fill-rule="evenodd" clip-rule="evenodd" d="M26.3094 12.0759L26.1492 11.3349H23.9863V20.0967H26.4896V14.1587C27.0804 13.3877 28.0818 13.5279 28.3922 13.638V11.3349C28.0718 11.2148 26.9002 10.9945 26.3094 12.0759Z" fill="#7A73FF"/>
<path fill-rule="evenodd" clip-rule="evenodd" d="M21.3024 9.16113L18.8591 9.6818L18.8491 17.7025C18.8491 19.1845 19.9606 20.276 21.4426 20.276C22.2637 20.276 22.8645 20.1258 23.1949 19.9455V17.9128C22.8745 18.043 21.2924 18.5036 21.2924 17.0216V13.4669H23.1949V11.334H21.2924L21.3024 9.16113Z" fill="#7A73FF"/>
<path fill-rule="evenodd" clip-rule="evenodd" d="M14.5334 13.8777C14.5334 13.4872 14.8538 13.337 15.3845 13.337C16.1455 13.337 17.1068 13.5673 17.8678 13.9778V11.6247C17.0367 11.2942 16.2156 11.1641 15.3845 11.1641C13.3518 11.1641 12 12.2255 12 13.9978C12 16.7615 15.8051 16.321 15.8051 17.5125C15.8051 17.9732 15.4045 18.1234 14.8438 18.1234C14.0127 18.1234 12.9512 17.7829 12.1101 17.3223V19.7055C13.0414 20.106 13.9826 20.2762 14.8438 20.2762C16.9266 20.2762 18.3585 19.2449 18.3585 17.4525C18.3485 14.4685 14.5334 14.9992 14.5334 13.8777Z" fill="#7A73FF"/>
</svg>
